<?xml version="1.0" encoding="utf-8"?>
<!-- Generator: Adobe Illustrator 18.0.0, SVG Export Plug-In . SVG Version: 6.00 Build 0)  -->
<!DOCTYPE svg PUBLIC "-//W3C//DTD SVG 1.1//EN" "http://www.w3.org/Graphics/SVG/1.1/DTD/svg11.dtd">
<svg version="1.1" id="Layer_1" xmlns="http://www.w3.org/2000/svg" xmlns:xlink="http://www.w3.org/1999/xlink" x="0px" y="0px"
	 viewBox="0 0 200 200" enable-background="new 0 0 200 200" xml:space="preserve">
<g>
	<path fill="#0278B9" d="M66.4,56.3c0,13.9,11.5,25.2,25.6,25.2c14.1,0,25.6-11.3,25.6-25.2c0-13.9-11.5-25.2-25.6-25.2
		C77.9,31.1,66.4,42.4,66.4,56.3z"/>
	<path fill="#0278B9" d="M49.9,139v8.1h-3.6c-1.1,0-2,0.5-2.7,1.3c-0.6,0.8-0.9,1.9-0.6,2.9l4.7,18.5c0.6,2.1,1.9,3,4,3h81.1
		c1.4,0,3.1-0.5,4-3l4.7-18.5c0.3-1,0-2.1-0.6-2.9c-0.6-0.8-1.6-1.3-2.7-1.3h-3.5v-30.4c0-1.9-1.5-3.4-3.4-3.4h-4.9l0-6.3
		c0,0,29-14.3,42.8-56.5c2.3-5.8,1.9-12.5-2.7-15.5c-3.7-2.4-11.6-2.9-14.8,3.7c0,0-12.7,33.5-39.7,45c-11.9,5.1-20.4,3.5-32.9,4.9
		c-23.2,2.5-30.1,9.9-32,31.2l-0.4,11.3L49.9,139z M56.7,120.1h71.1v46H56.7V120.1z"/>
</g>
<g>
	<path fill="#0075C9" d="M77.8,139.8H88v-10.5h8.9v10.5h10.2v9.1H96.9v10.6H88v-10.6H77.8V139.8z"/>
</g>
</svg>
