<?xml version="1.0" encoding="utf-8"?>
<!-- Generator: Adobe Illustrator 18.0.0, SVG Export Plug-In . SVG Version: 6.00 Build 0)  -->
<!DOCTYPE svg PUBLIC "-//W3C//DTD SVG 1.1//EN" "http://www.w3.org/Graphics/SVG/1.1/DTD/svg11.dtd">
<svg version="1.1" id="Layer_1" xmlns="http://www.w3.org/2000/svg" xmlns:xlink="http://www.w3.org/1999/xlink" x="0px" y="0px"
	 viewBox="0 0 30 30" enable-background="new 0 0 30 30" xml:space="preserve">
<circle fill="#555555" cx="14.9" cy="15" r="13.1"/>
<path fill="#FFFFFF" d="M11,13.2l3.2-3.2c0.7-0.7,0.7-1.8,0-2.4c-0.7-0.7-1.8-0.7-2.4,0c-2.7,2.7-6.1,6.1-6.1,6.1
	c-0.7,0.7-0.7,1.8,0,2.4l6.2,6.2c0.7,0.7,1.8,0.7,2.4,0c0.7-0.7,0.7-1.8,0-2.4c-2.7-2.7-3.2-3.2-3.2-3.2s8.6,0,11.7,0
	c1,0,1.7-0.8,1.7-1.7c0-1-0.8-1.7-1.7-1.7C19.1,13.2,11,13.2,11,13.2z"/>
</svg>
