<?xml version="1.0" encoding="utf-8"?>
<!-- Generator: Adobe Illustrator 18.0.0, SVG Export Plug-In . SVG Version: 6.00 Build 0)  -->
<!DOCTYPE svg PUBLIC "-//W3C//DTD SVG 1.1//EN" "http://www.w3.org/Graphics/SVG/1.1/DTD/svg11.dtd">
<svg version="1.1" id="Layer_1" xmlns="http://www.w3.org/2000/svg" xmlns:xlink="http://www.w3.org/1999/xlink" x="0px" y="0px"
	 viewBox="0 0 30 30" enable-background="new 0 0 30 30" xml:space="preserve">
<circle fill="#CC0E00" cx="14.9" cy="15" r="13.1"/>
<g>
	<path fill="#FFFFFF" d="M7.6,20c0.6-0.8,1.3-1.6,1.9-2.4c0.7-0.8,1.4-1.6,2.1-2.4c-0.7-1.3-1.2-2.5-1.7-3.6s-0.8-2-1-2.9l0.9-1.1
		l0.6,0.5l0.3-0.1l0.1-0.5l0.6-0.4l0.4,0.3l2.9,4.5c1.5-1.6,2.6-2.8,3.4-3.6c0.8-0.8,1.5-1.5,2.3-2.2c0.2,0,0.3,0.1,0.5,0.2
		c0.1,0.1,0.3,0.3,0.5,0.6L21,7.4l0.5,0.4l0.3-0.1l0.5,0.7L21.9,9l0,0.2c-1.4,1.5-2.5,2.6-3.3,3.5c-0.8,0.8-1.4,1.6-2,2.4l3.4,4.4
		L20,20l-0.6,0.8l-0.2-0.1l-0.3,0.4l0.1,0.2L18.3,22H18l-0.5-0.4l-0.9,0.8l-0.4,0c-0.3-0.3-0.6-0.7-1-1.2c-0.4-0.5-0.9-1.3-1.6-2.4
		c-0.5,0.6-1,1.3-1.6,2c-0.6,0.8-1.3,1.7-2.1,2.9l-0.4,0l-0.5-0.5l0.1-0.4l-0.2-0.1l-0.5,0.2l-0.3-0.2l-0.6-1L7.9,21L7.6,20z"/>
</g>
</svg>
