<?xml version="1.0" encoding="utf-8"?>
<!-- Generator: Adobe Illustrator 18.0.0, SVG Export Plug-In . SVG Version: 6.00 Build 0)  -->
<!DOCTYPE svg PUBLIC "-//W3C//DTD SVG 1.1//EN" "http://www.w3.org/Graphics/SVG/1.1/DTD/svg11.dtd">
<svg version="1.1" id="Layer_1" xmlns="http://www.w3.org/2000/svg" xmlns:xlink="http://www.w3.org/1999/xlink" x="0px" y="0px"
	 viewBox="0 0 40 40" enable-background="new 0 0 40 40" xml:space="preserve">
<g>
	<g id="XMLID_467_">
		<g id="XMLID_468_">
			<path id="XMLID_469_" fill="#F69540" d="M11.7,37.4h2.6c0.6,0,1.1-0.5,1.1-1.1V23c0-1-1.2-1.5-1.9-0.8l-2.6,2.6
				c-0.2,0.2-0.3,0.5-0.3,0.8v10.7C10.5,36.9,11,37.4,11.7,37.4z M3.9,32.2v4.1c0,0.6,0.5,1.1,1.1,1.1h2.6c0.6,0,1.1-0.5,1.1-1.1
				v-6.6c0-1-1.2-1.5-1.9-0.8l-1.4,1.4l-1.2,1.2C4,31.6,3.9,31.9,3.9,32.2z M18.3,37.4h2.6c0.6,0,1.1-0.5,1.1-1.1V24.6
				c0-0.3-0.1-0.6-0.3-0.8l-2.6-2.6c-0.7-0.7-1.9-0.2-1.9,0.8v14.2C17.2,36.9,17.7,37.4,18.3,37.4z M23.8,25.2v11.1
				c0,0.6,0.5,1.1,1.1,1.1h2.6c0.6,0,1.1-0.5,1.1-1.1V22.6c0-1-1.2-1.5-1.9-0.8l-1.9,1.9l-0.7,0.7C23.9,24.6,23.8,24.9,23.8,25.2z
				 M31.5,37.4h2.6c0.6,0,1.1-0.5,1.1-1.1V16c0-1-1.2-1.5-1.9-0.8l-2.6,2.6c-0.2,0.2-0.3,0.5-0.3,0.8v17.7
				C30.4,36.9,30.9,37.4,31.5,37.4z M30.9,3.3c-0.9,0.1-1.4,1.2-0.7,1.9l1.5,1.5l0,0L24,14.5c-0.4,0.4-1.2,0.4-1.6,0l-4.8-4.8
				c-0.4-0.4-1.2-0.4-1.6,0L1.1,24.4c-0.4,0.4-0.4,1.2,0,1.6l1.8,1.8c0.4,0.4,1.2,0.4,1.6,0l11.4-11.4c0.4-0.4,1.2-0.4,1.6,0
				l4.8,4.8c0.4,0.4,1.2,0.4,1.6,0l10.4-10.4c0.4-0.4,1.2-0.4,1.6,0l0.7,0.7c0.7,0.7,1.8,0.3,1.9-0.7l0.7-7.1
				c0.1-0.7-0.5-1.3-1.2-1.2L30.9,3.3z"/>
		</g>
	</g>
</g>
</svg>
