<?xml version="1.0" encoding="utf-8"?>
<!-- Generator: Adobe Illustrator 18.0.0, SVG Export Plug-In . SVG Version: 6.00 Build 0)  -->
<!DOCTYPE svg PUBLIC "-//W3C//DTD SVG 1.1//EN" "http://www.w3.org/Graphics/SVG/1.1/DTD/svg11.dtd">
<svg version="1.1" id="Layer_1" xmlns="http://www.w3.org/2000/svg" xmlns:xlink="http://www.w3.org/1999/xlink" x="0px" y="0px"
	 viewBox="0 0 30 30" enable-background="new 0 0 30 30" xml:space="preserve">
<circle fill="#555555" cx="14.9" cy="15" r="13.1"/>
<g>
	<g>
		<g>
			<g>
				<path fill="#FFFFFF" d="M20.2,6.8L20,6.3c-0.2-0.5-0.8-0.8-1.3-0.5L9,10.2c-0.5,0.2-0.7,0.8-0.5,1.4L8.8,12L20.2,6.8z"/>
				<path fill="#FFFFFF" d="M15.6,6.7L15.6,6.7c-0.3-0.6-0.9-0.8-1.4-0.6l-2,0.9c-0.5,0.2-0.8,0.9-0.5,1.4l0,0.1L15.6,6.7z"/>
			</g>
			<path fill="#FFFFFF" d="M9.1,12.7L10.3,23c0.1,0.8,0.8,1.5,1.6,1.5h5.7c0.8,0,1.5-0.7,1.6-1.5l1.2-10.3H9.1z M12.2,22.7
				c-0.3,0-0.5-0.2-0.5-0.4l-0.7-7.1c0-0.3,0.2-0.5,0.4-0.5c0.3,0,0.5,0.2,0.5,0.4l0.7,7.1C12.7,22.4,12.5,22.6,12.2,22.7z
				 M15.3,22.2c0,0.3-0.2,0.5-0.5,0.5c-0.3,0-0.5-0.2-0.5-0.5v-7.1c0-0.3,0.2-0.5,0.5-0.5c0.3,0,0.5,0.2,0.5,0.5V22.2z M18.6,15.2
				l-0.7,7.1c0,0.3-0.2,0.5-0.5,0.4c-0.3,0-0.4-0.3-0.4-0.5l0.7-7.1c0-0.3,0.2-0.5,0.5-0.4C18.4,14.7,18.6,14.9,18.6,15.2z"/>
		</g>
	</g>
</g>
</svg>
