<?xml version="1.0" encoding="utf-8"?>
<!-- Generator: Adobe Illustrator 18.0.0, SVG Export Plug-In . SVG Version: 6.00 Build 0)  -->
<!DOCTYPE svg PUBLIC "-//W3C//DTD SVG 1.1//EN" "http://www.w3.org/Graphics/SVG/1.1/DTD/svg11.dtd">
<svg version="1.1" id="Layer_1" xmlns="http://www.w3.org/2000/svg" xmlns:xlink="http://www.w3.org/1999/xlink" x="0px" y="0px"
	 viewBox="0 0 30 30" enable-background="new 0 0 30 30" xml:space="preserve">
<circle fill="#555555" cx="14.9" cy="15" r="13.1"/>
<g>
	<path fill="#FFFFFF" d="M21.6,9.6H8.3c-0.6,0-1,0.5-1,1v1c0,0.2,0.1,0.4,0.4,0.5l6.9,3.5l0,0h0l0,0c0.1,0.1,0.4,0.2,0.8,0l6.9-3.5
		c0.3-0.1,0.4-0.4,0.4-0.5v-1C22.6,10.1,22.2,9.6,21.6,9.6z M15.7,16.6c-0.2,0.1-0.5,0.2-0.8,0.2c0,0,0,0,0,0c-0.2,0-0.4,0-0.6-0.1
		h0l-0.1,0c0,0,0,0,0,0l-6.9-3.5c0,0,0,0-0.1,0v6.4c0,0.6,0.5,1,1,1h13.3c0.6,0,1-0.5,1-1v-6.4c0,0,0,0-0.1,0L15.7,16.6z"/>
</g>
</svg>
