<?xml version="1.0" encoding="utf-8"?>
<!-- Generator: Adobe Illustrator 18.0.0, SVG Export Plug-In . SVG Version: 6.00 Build 0)  -->
<!DOCTYPE svg PUBLIC "-//W3C//DTD SVG 1.1//EN" "http://www.w3.org/Graphics/SVG/1.1/DTD/svg11.dtd">
<svg version="1.1" id="Layer_1" xmlns="http://www.w3.org/2000/svg" xmlns:xlink="http://www.w3.org/1999/xlink" x="0px" y="0px"
	 viewBox="0 0 40 40" enable-background="new 0 0 40 40" xml:space="preserve">
<path fill="#ECEEF0" d="M38.8,33.8H21.3c-0.7,0-1.3-0.6-1.3-1.3c0-0.7,0-24.3,0-25s0.6-1.3,1.3-1.3h17.5c0.7,0,1.3,0.6,1.3,1.3v25
	C40,33.2,39.4,33.8,38.8,33.8z"/>
<g>
	<path fill="#378E43" d="M26.3,13.8h-5c-0.7,0-1.3-0.6-1.3-1.3c0-0.7,0.6-1.3,1.3-1.3h5c0.7,0,1.3,0.6,1.3,1.3
		C27.5,13.2,26.9,13.8,26.3,13.8z"/>
	<path fill="#378E43" d="M26.3,18.8h-5c-0.7,0-1.3-0.6-1.3-1.3c0-0.7,0.6-1.3,1.3-1.3h5c0.7,0,1.3,0.6,1.3,1.3
		C27.5,18.2,26.9,18.8,26.3,18.8z"/>
	<path fill="#378E43" d="M26.3,23.8h-5c-0.7,0-1.3-0.6-1.3-1.3s0.6-1.3,1.3-1.3h5c0.7,0,1.3,0.6,1.3,1.3S26.9,23.8,26.3,23.8z"/>
	<path fill="#378E43" d="M26.3,28.8h-5c-0.7,0-1.3-0.6-1.3-1.3s0.6-1.3,1.3-1.3h5c0.7,0,1.3,0.6,1.3,1.3S26.9,28.8,26.3,28.8z"/>
	<path fill="#378E43" d="M33.8,13.8h-2.5c-0.7,0-1.3-0.6-1.3-1.3c0-0.7,0.6-1.3,1.3-1.3h2.5c0.7,0,1.3,0.6,1.3,1.3
		C35,13.2,34.4,13.8,33.8,13.8z"/>
	<path fill="#378E43" d="M33.8,18.8h-2.5c-0.7,0-1.3-0.6-1.3-1.3c0-0.7,0.6-1.3,1.3-1.3h2.5c0.7,0,1.3,0.6,1.3,1.3
		C35,18.2,34.4,18.8,33.8,18.8z"/>
	<path fill="#378E43" d="M33.8,23.8h-2.5c-0.7,0-1.3-0.6-1.3-1.3s0.6-1.3,1.3-1.3h2.5c0.7,0,1.3,0.6,1.3,1.3S34.4,23.8,33.8,23.8z"
		/>
	<path fill="#378E43" d="M33.8,28.8h-2.5c-0.7,0-1.3-0.6-1.3-1.3s0.6-1.3,1.3-1.3h2.5c0.7,0,1.3,0.6,1.3,1.3S34.4,28.8,33.8,28.8z"
		/>
</g>
<path fill="#307D3D" d="M22,1.5c-0.3-0.2-0.7-0.3-1-0.3L1,5C0.4,5.1,0,5.6,0,6.3v27.5c0,0.6,0.4,1.1,1,1.2l20,3.8c0.1,0,0.2,0,0.2,0
	c0.3,0,0.6-0.1,0.8-0.3c0.3-0.2,0.5-0.6,0.5-1v-35C22.5,2.1,22.3,1.8,22,1.5z"/>
<path fill="#F9F9F9" d="M17.2,24.2l-4-4.5l4-5.1c0.4-0.5,0.3-1.3-0.2-1.8c-0.5-0.4-1.3-0.3-1.8,0.2l-3.7,4.8l-3.1-3.6
	c-0.5-0.5-1.2-0.6-1.8-0.1c-0.5,0.5-0.6,1.2-0.1,1.8l3.4,3.9l-3.5,4.5c-0.4,0.5-0.3,1.3,0.2,1.8c0.2,0.2,0.5,0.3,0.8,0.3
	c0.4,0,0.7-0.2,1-0.5l3.2-4.1l3.6,4.2c0.2,0.3,0.6,0.4,0.9,0.4c0.3,0,0.6-0.1,0.8-0.3C17.6,25.5,17.6,24.7,17.2,24.2z"/>
</svg>
