<?xml version="1.0" encoding="utf-8"?>
<!-- Generator: Adobe Illustrator 18.0.0, SVG Export Plug-In . SVG Version: 6.00 Build 0)  -->
<!DOCTYPE svg PUBLIC "-//W3C//DTD SVG 1.1//EN" "http://www.w3.org/Graphics/SVG/1.1/DTD/svg11.dtd">
<svg version="1.1" id="Layer_1" xmlns="http://www.w3.org/2000/svg" xmlns:xlink="http://www.w3.org/1999/xlink" x="0px" y="0px"
	 viewBox="0 0 30 30" enable-background="new 0 0 30 30" xml:space="preserve">
<circle fill="#0979BB" cx="14.9" cy="15" r="13.1"/>
<g>
	<path fill="#FFFFFF" d="M14.2,20.6c-0.1,0.2-0.1,0.4,0.1,0.4c0.1,0,0.2-0.1,0.4-0.2c0.2-0.1,0.4-0.2,0.6-0.4
		c0.2-0.2,0.4-0.3,0.7-0.5c0.2-0.2,0.4-0.3,0.6-0.5c0.1,0,0.3,0.1,0.4,0.2C17,19.7,17,19.8,17,20c-0.2,0.3-0.5,0.6-0.9,1
		s-0.8,0.6-1.2,0.9c-0.4,0.3-0.9,0.5-1.4,0.7c-0.5,0.2-1,0.3-1.5,0.3c-0.2,0-0.3,0-0.4-0.1c-0.1-0.1-0.3-0.2-0.3-0.3
		c-0.1-0.1-0.2-0.2-0.2-0.3c-0.1-0.1-0.1-0.2-0.1-0.3c0-0.1,0-0.3,0.1-0.4c0-0.2,0.1-0.4,0.2-0.6l2.5-6c0.1-0.2,0.1-0.3,0-0.3
		c-0.1,0-0.2,0.1-0.4,0.2c-0.2,0.1-0.4,0.2-0.6,0.4c-0.2,0.1-0.4,0.3-0.6,0.4c-0.2,0.2-0.3,0.3-0.4,0.4c-0.1,0-0.3-0.1-0.3-0.2
		s-0.1-0.2,0-0.3c0.3-0.4,0.7-0.8,1.1-1.1c0.4-0.3,0.9-0.6,1.3-0.9s0.9-0.4,1.3-0.6c0.4-0.1,0.8-0.2,1.1-0.2c0.3,0,0.5,0.1,0.8,0.3
		c0.2,0.2,0.3,0.5,0.3,0.7c0,0.1,0,0.3-0.1,0.5c-0.1,0.2-0.1,0.4-0.2,0.6L14.2,20.6z M15,8.6c0-0.3,0-0.5,0.1-0.8
		c0.1-0.3,0.2-0.5,0.4-0.7c0.2-0.2,0.4-0.3,0.6-0.5c0.2-0.1,0.5-0.2,0.8-0.2c0.4,0,0.8,0.1,1,0.4s0.4,0.6,0.4,1.1
		c0,0.6-0.2,1-0.5,1.4c-0.4,0.4-0.8,0.6-1.4,0.6c-0.5,0-0.8-0.1-1.1-0.4C15.1,9.4,15,9,15,8.6z"/>
</g>
</svg>
