<?xml version="1.0" encoding="utf-8"?>
<!-- Generator: Adobe Illustrator 18.0.0, SVG Export Plug-In . SVG Version: 6.00 Build 0)  -->
<!DOCTYPE svg PUBLIC "-//W3C//DTD SVG 1.1//EN" "http://www.w3.org/Graphics/SVG/1.1/DTD/svg11.dtd">
<svg version="1.1" id="Layer_1" xmlns="http://www.w3.org/2000/svg" xmlns:xlink="http://www.w3.org/1999/xlink" x="0px" y="0px"
	 viewBox="0 0 30 30" enable-background="new 0 0 30 30" xml:space="preserve">
<circle fill="#8DC540" cx="14.9" cy="15" r="13.1"/>
<g>
	<path fill="#FFFFFF" stroke="#FFFFFF" stroke-miterlimit="10" d="M23.2,7.5c-2.1,2.4-4.1,4.7-5.9,7.1c-1.8,2.4-3.3,4.7-4.6,6.9
		c-0.1,0.2-0.2,0.4-0.4,0.7c-0.4,0.8-1.2,1.2-2.2,1.2c-0.5,0-0.8,0-0.9-0.1c-0.2-0.1-0.3-0.3-0.5-0.6c-0.4-0.8-0.7-1.6-1-2.6
		c-0.3-1-0.4-1.7-0.4-2c0-0.2,0-0.4,0.1-0.5c0.1-0.1,0.2-0.3,0.4-0.4c0.3-0.2,0.6-0.4,0.9-0.5c0.3-0.1,0.6-0.2,0.9-0.2
		c0.2,0,0.4,0.4,0.7,1.2c0,0.1,0,0.1,0.1,0.2c0,0,0,0.1,0.1,0.2c0.3,0.7,0.5,1.1,0.7,1.1c0.2,0,0.8-0.8,1.8-2.5
		c1-1.7,2.1-3.3,3.2-4.8c0.8-1,1.4-1.9,2-2.6c0.6-0.7,1-1.1,1.3-1.3c0.4-0.2,0.9-0.4,1.5-0.6c0.6-0.2,1.3-0.3,2-0.3L23.2,7.5z"/>
</g>
</svg>
